<?xml version="1.0" ?>
<!DOCTYPE svg  PUBLIC '-//W3C//DTD SVG 1.1//EN'  'http://www.w3.org/Graphics/SVG/1.1/DTD/svg11.dtd'>
<!-- Uploaded to: SVG Repo, www.svgrepo.com, Generator: SVG Repo Mixer Tools -->
<svg width="800px" height="800px" viewBox="0 0 512 512" enable-background="new 0 0 512 512" id="vector_x5F_design_1_" version="1.1" xml:space="preserve" xmlns="http://www.w3.org/2000/svg" xmlns:xlink="http://www.w3.org/1999/xlink">
<g id="vector_x5F_design">
<linearGradient gradientUnits="userSpaceOnUse" id="SVGID_1_" x1="195.9502" x2="316.0495" y1="454.1973" y2="384.8579">
<stop offset="0" style="stop-color:#F14D5C"/>
<stop offset="0.1309" style="stop-color:#F05454"/>
<stop offset="0.3346" style="stop-color:#ED663E"/>
<stop offset="0.3492" style="stop-color:#ED683C"/>
<stop offset="0.714" style="stop-color:#F3903F"/>
<stop offset="1" style="stop-color:#FDC70C"/>
</linearGradient>
<rect fill="url(#SVGID_1_)" height="10" width="154.358" x="178.821" y="414.528"/>
<linearGradient gradientUnits="userSpaceOnUse" id="SVGID_2_" x1="136.4697" x2="375.531" y1="171.4824" y2="33.4603">
<stop offset="0" style="stop-color:#F14D5C"/>
<stop offset="0.1309" style="stop-color:#F05454"/>
<stop offset="0.3346" style="stop-color:#ED663E"/>
<stop offset="0.3492" style="stop-color:#ED683C"/>
<stop offset="0.714" style="stop-color:#F3903F"/>
<stop offset="1" style="stop-color:#FDC70C"/>
</linearGradient>
<path d="M113.75,117.305c6.421,0,11.887-4.109,13.946-9.83h113.657v1.584c0,4.639,3.774,8.413,8.413,8.413   h13.175c4.639,0,8.412-3.774,8.412-8.413v-1.584h112.951c2.059,5.721,7.524,9.83,13.945,9.83c8.179,0,14.833-6.654,14.833-14.833   c0-8.179-6.654-14.833-14.833-14.833c-6.424,0-11.891,4.112-13.948,9.836H271.354v-1.59c0-4.639-3.773-8.413-8.412-8.413h-13.175   c-4.639,0-8.413,3.774-8.413,8.413v1.59H127.698c-2.058-5.724-7.524-9.836-13.948-9.836c-8.179,0-14.833,6.654-14.833,14.833   C98.917,110.65,105.571,117.305,113.75,117.305z M398.25,97.638c2.665,0,4.833,2.168,4.833,4.833s-2.168,4.833-4.833,4.833   s-4.833-2.168-4.833-4.833S395.585,97.638,398.25,97.638z M251.354,97.472h10v10h-10V97.472z M113.75,97.638   c2.665,0,4.833,2.168,4.833,4.833s-2.168,4.833-4.833,4.833s-4.833-2.168-4.833-4.833S111.085,97.638,113.75,97.638z" fill="url(#SVGID_2_)"/>
<linearGradient gradientUnits="userSpaceOnUse" id="SVGID_3_" x1="161.998" x2="330.4072" y1="330.7939" y2="233.5629">
<stop offset="0" style="stop-color:#F14D5C"/>
<stop offset="0.1309" style="stop-color:#F05454"/>
<stop offset="0.3346" style="stop-color:#ED663E"/>
<stop offset="0.3492" style="stop-color:#ED683C"/>
<stop offset="0.714" style="stop-color:#F3903F"/>
<stop offset="1" style="stop-color:#FDC70C"/>
</linearGradient>
<path d="M360.88,293.209l-84.491-153.208c-1.328-2.328-4.071-3.472-6.655-2.787   c-2.591,0.688-4.4,3.039-4.4,5.719v116.328c0,4.997,1.806,9.66,5.086,13.131c3.914,4.141,5.813,9.57,5.346,15.285   c-0.791,9.709-8.727,17.497-18.459,18.116c-5.561,0.351-10.839-1.538-14.874-5.326c-4.04-3.791-6.265-8.929-6.265-14.466   c0-5.01,1.875-9.793,5.28-13.467c3.366-3.632,5.22-8.229,5.22-12.943V144.173c0-2.68-1.81-5.032-4.4-5.719   c-2.59-0.688-5.327,0.459-6.691,2.851l-83.711,151.84c-4.448,7.788-3.216,17.625,2.969,24.077l58.099,80.496   c2.795,3.873,7.316,6.186,12.094,6.186h62.657c4.777,0,9.299-2.313,12.094-6.185l58.099-80.497   C364.06,310.77,365.292,300.934,360.88,293.209z M350.504,310.457l-0.284,0.285l-58.553,81.124c-0.92,1.275-2.41,2.037-3.984,2.037   h-62.657c-1.574,0-3.064-0.762-3.984-2.038l-58.317-80.799l-0.235-0.324l-0.284-0.285c-3.265-3.265-3.946-8.345-1.619-12.42   l76.082-138.001v99.556c0,2.186-0.907,4.369-2.554,6.146c-5.124,5.529-7.946,12.725-7.946,20.264   c0,8.209,3.434,16.139,9.422,21.758c6.071,5.697,14,8.547,22.352,8.014c14.652-0.932,26.6-12.661,27.791-27.283   c0.69-8.455-2.242-16.826-8.045-22.967c-1.518-1.605-2.354-3.83-2.354-6.262V158.793l76.827,139.31   C354.45,302.112,353.769,307.192,350.504,310.457z" fill="url(#SVGID_3_)"/>
</g>
</svg>